<?xml version="1.0" encoding="iso-8859-1"?>
<!-- Generator: Adobe Illustrator 19.0.0, SVG Export Plug-In . SVG Version: 6.00 Build 0)  -->
<svg version="1.1" id="Layer_1" xmlns="http://www.w3.org/2000/svg" xmlns:xlink="http://www.w3.org/1999/xlink" x="0px" y="0px"
	 viewBox="0 0 473.654 473.654" style="enable-background:new 0 0 473.654 473.654;" xml:space="preserve">
<circle style="fill:#880E4F;" cx="236.827" cy="236.827" r="236.827"/>
<path style="fill:#DDDCD9;" d="M113.171,127.486h253.27c8.508,0,15.471,6.959,15.471,15.463v200.434
	c0,8.508-6.959,15.463-15.471,15.463h-253.27c-8.508,0-15.471-6.952-15.471-15.463V142.945
	C97.7,134.445,104.659,127.486,113.171,127.486L113.171,127.486z"/>
<path style="fill:#FFD600;" d="M113.171,127.486h253.27c8.508,0,15.471,6.959,15.471,15.463v53.491H97.704v-53.495
	C97.7,134.445,104.659,127.486,113.171,127.486L113.171,127.486z"/>
<g style="opacity:0.15;">
	<path d="M317.43,127.486v28.851c0,7.24-5.92,13.156-13.152,13.156h-11.297c-7.24,0-13.156-5.916-13.156-13.156v-28.851H317.43
		L317.43,127.486z M162.182,127.486h37.605v28.851c0,7.24-5.92,13.156-13.156,13.156H175.33c-7.232,0-13.148-5.916-13.148-13.156
		V127.486L162.182,127.486z"/>
</g>
<path style="fill:#FFFFFF;" d="M292.981,91.388h11.297c3.627,0,6.597,2.973,6.597,6.597v58.352c0,3.631-2.969,6.597-6.597,6.597
	h-11.297c-3.631,0-6.6-2.965-6.6-6.597V97.984C286.38,94.361,289.35,91.388,292.981,91.388z M175.33,91.388h11.301
	c3.627,0,6.597,2.973,6.597,6.597v58.352c0,3.631-2.969,6.597-6.597,6.597H175.33c-3.624,0-6.593-2.965-6.593-6.597V97.984
	C168.737,94.361,171.706,91.388,175.33,91.388z"/>
<g>
	<path style="fill:#626463;" d="M238.633,310.549h-70.678c0.808-6.974,3.265-13.541,7.374-19.693s11.81-13.41,23.107-21.772
		c6.903-5.127,11.316-9.027,13.246-11.686c1.93-2.659,2.891-5.187,2.891-7.573c0-2.584-0.957-4.79-2.865-6.623
		c-1.911-1.832-4.308-2.745-7.202-2.745c-3.007,0-5.464,0.942-7.374,2.835c-1.907,1.885-3.194,5.228-3.848,10.007l-23.597-1.907
		c0.927-6.63,2.621-11.81,5.09-15.534c2.464-3.717,5.946-6.574,10.441-8.56c4.487-1.978,10.706-2.973,18.649-2.973
		c8.291,0,14.738,0.942,19.345,2.835c4.607,1.892,8.231,4.783,10.875,8.698c2.64,3.923,3.964,8.306,3.964,13.163
		c0,5.164-1.515,10.101-4.54,14.805c-3.029,4.704-8.534,9.876-16.514,15.504c-4.746,3.272-7.913,5.564-9.513,6.881
		c-1.604,1.309-3.482,3.025-5.639,5.149h36.786v19.188H238.633z"/>
	<path style="fill:#626463;" d="M316.884,244.849l-23.425,2.891c-0.617-3.28-1.645-5.594-3.093-6.937
		c-1.447-1.35-3.231-2.031-5.355-2.031c-3.818,0-6.784,1.93-8.904,5.785c-1.541,2.775-2.681,8.713-3.414,17.823
		c2.816-2.857,5.707-4.974,8.676-6.339c2.969-1.372,6.402-2.053,10.295-2.053c7.558,0,13.949,2.704,19.173,8.1
		s7.838,12.24,7.838,20.53c0,5.587-1.32,10.691-3.96,15.325c-2.644,4.63-6.309,8.13-10.991,10.497
		c-4.686,2.375-10.553,3.556-17.613,3.556c-8.481,0-15.284-1.447-20.414-4.33c-5.127-2.898-9.226-7.517-12.292-13.855
		c-3.063-6.339-4.596-14.738-4.596-25.182c0-15.317,3.22-26.521,9.659-33.634c6.443-7.113,15.366-10.673,26.779-10.673
		c6.75,0,12.079,0.782,15.99,2.337c3.915,1.563,7.161,3.848,9.745,6.858C313.571,236.517,315.534,240.301,316.884,244.849z
		 M273.509,282.618c0,4.588,1.159,8.182,3.47,10.789c2.315,2.599,5.149,3.9,8.504,3.9c3.081,0,5.665-1.174,7.748-3.526
		c2.083-2.352,3.123-5.864,3.123-10.523c0-4.775-1.081-8.429-3.238-10.935c-2.161-2.506-4.839-3.762-8.036-3.762
		c-3.28,0-6.024,1.219-8.242,3.646C274.616,274.634,273.509,278.105,273.509,282.618z"/>
</g>
<g>
</g>
<g>
</g>
<g>
</g>
<g>
</g>
<g>
</g>
<g>
</g>
<g>
</g>
<g>
</g>
<g>
</g>
<g>
</g>
<g>
</g>
<g>
</g>
<g>
</g>
<g>
</g>
<g>
</g>
</svg>
