<?xml version="1.0" encoding="iso-8859-1"?>
<!-- Generator: Adobe Illustrator 19.0.0, SVG Export Plug-In . SVG Version: 6.00 Build 0)  -->
<svg version="1.1" id="Layer_1" xmlns="http://www.w3.org/2000/svg" xmlns:xlink="http://www.w3.org/1999/xlink" x="0px" y="0px"
	 viewBox="0 0 504.123 504.123" style="enable-background:new 0 0 504.123 504.123;" xml:space="preserve">
<circle style="fill:#455A64;" cx="252.062" cy="252.062" r="252.062"/>
<path style="fill:#F9F9F9;" d="M389.12,406.843H127.606c-13.785,0-24.812-11.028-24.812-24.812V91.766h261.514v290.265
	L389.12,406.843z"/>
<path style="fill:#CED5E0;" d="M389.12,406.843L389.12,406.843c-13.785,0-24.812-11.028-24.812-24.812V203.618h49.625v178.412
	C413.932,395.815,402.511,406.843,389.12,406.843z"/>
<rect x="124.062" y="111.852" style="fill:#84DBFF;" width="215.04" height="78.375"/>
<g>
	<rect x="245.76" y="299.717" style="fill:#ACB3BA;" width="102.4" height="6.302"/>
	<rect x="245.76" y="278.843" style="fill:#ACB3BA;" width="102.4" height="6.302"/>
	<rect x="245.76" y="257.969" style="fill:#ACB3BA;" width="102.4" height="6.302"/>
	<rect x="245.76" y="237.095" style="fill:#ACB3BA;" width="102.4" height="6.302"/>
	<rect x="245.76" y="216.222" style="fill:#ACB3BA;" width="102.4" height="6.302"/>
	<rect x="245.76" y="320.591" style="fill:#ACB3BA;" width="102.4" height="6.302"/>
	<rect x="245.76" y="341.465" style="fill:#ACB3BA;" width="102.4" height="6.302"/>
	<rect x="245.76" y="362.338" style="fill:#ACB3BA;" width="102.4" height="6.302"/>
	<rect x="127.212" y="341.465" style="fill:#ACB3BA;" width="102.4" height="6.302"/>
	<rect x="127.212" y="362.338" style="fill:#ACB3BA;" width="102.4" height="6.302"/>
</g>
<rect x="209.132" y="216.222" style="fill:#4CDBC4;" width="20.48" height="111.065"/>
<rect x="181.957" y="262.695" style="fill:#FFD05B;" width="20.48" height="64.591"/>
<rect x="154.782" y="247.335" style="fill:#FF7058;" width="20.48" height="79.951"/>
<g>
	<rect x="127.212" y="285.932" style="fill:#324A5E;" width="20.48" height="41.354"/>
	<path style="fill:#324A5E;" d="M170.929,129.969h7.089v42.929h-7.877l-24.418-31.508v31.508h-7.089v-42.929h7.089l24.812,32.295
		v-32.295H170.929z"/>
	<path style="fill:#324A5E;" d="M220.554,129.969v6.695h-22.843v11.422h20.48v6.302h-20.48v11.422h23.631v6.695h-31.114v-42.535
		H220.554z"/>
	<path style="fill:#324A5E;" d="M243.791,160.689l9.452-31.114h6.695l9.452,31.114l10.634-31.114h7.877l-14.966,42.929h-7.089
		l-9.058-29.538h-0.394l-9.058,29.538h-7.089l-14.966-42.535h7.877L243.791,160.689z"/>
	<path style="fill:#324A5E;" d="M307.988,135.483c-1.969,0-3.938,0.394-5.12,1.182c-1.182,0.788-1.969,1.969-1.969,3.938
		c0,1.575,0.788,3.151,1.969,3.938c1.182,0.788,4.332,1.969,8.665,3.151c4.332,1.182,7.877,2.757,9.846,4.332
		c2.363,1.969,3.545,4.726,3.545,8.665s-1.575,6.695-4.332,9.058c-2.757,2.363-6.695,3.545-11.028,3.545
		c-6.695,0-12.603-2.363-17.723-7.089l4.726-5.514c4.332,3.938,8.665,5.514,13.391,5.514c2.363,0,4.332-0.394,5.514-1.575
		c1.182-1.182,1.969-2.363,1.969-3.938s-0.788-2.757-1.969-3.938c-1.182-0.788-3.545-1.575-6.695-2.363
		c-3.151-0.788-5.514-1.575-7.089-1.969c-1.575-0.788-3.151-1.575-4.332-2.363c-2.363-1.969-3.938-4.726-3.938-8.665
		s1.575-7.089,4.332-9.058c2.757-1.969,6.302-3.151,10.634-3.151c2.757,0,5.514,0.394,8.271,1.182
		c2.757,0.788,5.12,2.363,7.089,3.938l-3.938,5.514c-1.182-1.182-3.151-1.969-5.12-2.757
		C312.32,135.877,309.957,135.483,307.988,135.483z"/>
</g>
<g>
</g>
<g>
</g>
<g>
</g>
<g>
</g>
<g>
</g>
<g>
</g>
<g>
</g>
<g>
</g>
<g>
</g>
<g>
</g>
<g>
</g>
<g>
</g>
<g>
</g>
<g>
</g>
<g>
</g>
</svg>
