<svg viewBox="0 0 336 236" xmlns="http://www.w3.org/2000/svg" fill-rule="evenodd" clip-rule="evenodd" stroke-linejoin="round" stroke-miterlimit="1.414"><path fill="#fafafa" d="M-3.295.582h342.212v238.163H-3.295z"/><g fill-rule="nonzero"><path d="M23.6 104.5v3.5h1.5c.3-.5.9-.8 1.6-.9 1 0 1.9.8 1.9 1.9 0 1-.8 1.9-1.9 1.9-.6 0-1.2-.3-1.5-.8h-1.5v2.5h1.5c.3-.5.9-.8 1.6-.9 1 0 1.9.8 1.9 1.9 0 1-.8 1.9-1.9 1.9-.6 0-1.2-.3-1.5-.8h-1.5v2.5h1.5c.3-.5.9-.9 1.6-.9 1 0 1.9.8 1.9 1.9 0 1-.8 1.9-1.9 1.9-.6 0-1.2-.3-1.5-.8h-1.5v2.5h1.5c.3-.5.9-.9 1.6-.9 1 0 1.9.8 1.9 1.9 0 1-.8 1.9-1.9 1.9-.6 0-1.2-.3-1.5-.8H24v2.5h1.5c.3-.5.9-.8 1.6-.9 1 0 1.9.8 1.9 1.9 0 1-.8 1.9-1.9 1.9-.6 0-1.2-.3-1.5-.8h-1.5v2.5h1.5c.3-.5.9-.9 1.6-.9 1 0 1.9.8 1.9 1.9 0 1-.8 1.9-1.9 1.9-.6 0-1.2-.3-1.5-.8h-1.5v2.5h1.5c.3-.5.9-.9 1.6-.9 1 0 1.9.8 1.9 1.9 0 1-.8 1.9-1.9 1.9-.6 0-1.2-.3-1.5-.8h-1.5v2.5h1.5c.3-.5.9-.9 1.6-.9 1 0 1.9.8 1.9 1.9 0 1-.8 1.9-1.9 1.9-.6 0-1.2-.3-1.5-.8h-1.5v2.5h1.5c.3-.5.9-.8 1.6-.9 1 0 1.9.8 1.9 1.9 0 1-.8 1.9-1.9 1.9-.6 0-1.2-.3-1.5-.8h-1.5v2.5H26c.3-.5.9-.8 1.6-.9 1 0 1.9.8 1.9 1.9 0 1-.8 1.9-1.9 1.9-.6 0-1.2-.3-1.5-.8h-1.5v2.5h1.5c.3-.5.9-.9 1.6-.9 1 0 1.9.8 1.9 1.9 0 1-.8 1.9-1.9 1.9-.6 0-1.2-.3-1.5-.8h-1.5v2.5h1.5c.3-.5.9-.9 1.6-.9 1 0 1.9.8 1.9 1.9 0 1-.8 1.9-1.9 1.9-.6 0-1.2-.3-1.5-.8h-1.5v2.5h1.5c.3-.5.9-.8 1.6-.9 1 0 1.9.8 1.9 1.9 0 1-.8 1.9-1.9 1.9-.6 0-1.2-.3-1.5-.8h-1.5v2.5h1.5c.3-.5.9-.9 1.6-.9 1 0 1.9.8 1.9 1.9 0 1-.8 1.9-1.9 1.9-.6 0-1.2-.3-1.5-.8H25v2.5h1.5c.3-.5.9-.9 1.6-.9 1 0 1.9.8 1.9 1.9 0 1-.8 1.9-1.9 1.9-.6 0-1.2-.3-1.5-.8h-1.5v2.5h1.5c.3-.5.9-.9 1.6-.9 1 0 1.9.8 1.9 1.9 0 1-.8 1.9-1.9 1.9-.6 0-1.2-.3-1.5-.8h-1.5v2.5h1.5c.3-.5.9-.9 1.6-.9 1 0 1.9.8 1.9 1.9 0 1-.8 1.9-1.9 1.9-.6 0-1.2-.3-1.5-.8h-1.5v2.5h1.5c.3-.5.9-.8 1.6-.9 1 0 1.9.8 1.9 1.9 0 1-.8 1.9-1.9 1.9-.6 0-1.2-.3-1.5-.8h-1.5v2.5h1.5c.3-.5.9-.8 1.6-.9 1 0 1.9.8 1.9 1.9 0 1-.8 1.9-1.9 1.9-.6 0-1.2-.3-1.5-.8h-1.5v2.5H27c.3-.5.9-.9 1.6-.9 1 0 1.9.8 1.9 1.9 0 1-.8 1.9-1.9 1.9-.6 0-1.2-.3-1.5-.8h-1.5v2.5h1.5c.3-.5.9-.9 1.6-.9 1 0 1.9.8 1.9 1.9 0 1-.8 1.9-1.9 1.9-.6 0-1.2-.3-1.5-.8h-1.5v3.7l65.8-.1L90 104.6l-66.4-.1z" fill="#ddd"/><path d="M21.6 104.5v3.5h1.5c.3-.5.9-.8 1.6-.9 1 0 1.9.8 1.9 1.9 0 1-.8 1.9-1.9 1.9-.6 0-1.2-.3-1.5-.8h-1.5v2.5h1.5c.3-.5.9-.8 1.6-.9 1 0 1.9.8 1.9 1.9 0 1-.8 1.9-1.9 1.9-.6 0-1.2-.3-1.5-.8h-1.5v2.5h1.5c.3-.5.9-.9 1.6-.9 1 0 1.9.8 1.9 1.9 0 1-.8 1.9-1.9 1.9-.6 0-1.2-.3-1.5-.8h-1.5v2.5h1.5c.3-.5.9-.9 1.6-.9 1 0 1.9.8 1.9 1.9 0 1-.8 1.9-1.9 1.9-.6 0-1.2-.3-1.5-.8H22v2.5h1.5c.3-.5.9-.8 1.6-.9 1 0 1.9.8 1.9 1.9 0 1-.8 1.9-1.9 1.9-.6 0-1.2-.3-1.5-.8h-1.5v2.5h1.5c.3-.5.9-.9 1.6-.9 1 0 1.9.8 1.9 1.9 0 1-.8 1.9-1.9 1.9-.6 0-1.2-.3-1.5-.8h-1.5v2.5h1.5c.3-.5.9-.9 1.6-.9 1 0 1.9.8 1.9 1.9 0 1-.8 1.9-1.9 1.9-.6 0-1.2-.3-1.5-.8h-1.5v2.5h1.5c.3-.5.9-.9 1.6-.9 1 0 1.9.8 1.9 1.9 0 1-.8 1.9-1.9 1.9-.6 0-1.2-.3-1.5-.8h-1.5v2.5h1.5c.3-.5.9-.8 1.6-.9 1 0 1.9.8 1.9 1.9 0 1-.8 1.9-1.9 1.9-.6 0-1.2-.3-1.5-.8h-1.5v2.5H24c.3-.5.9-.8 1.6-.9 1 0 1.9.8 1.9 1.9 0 1-.8 1.9-1.9 1.9-.6 0-1.2-.3-1.5-.8h-1.5v2.5h1.5c.3-.5.9-.9 1.6-.9 1 0 1.9.8 1.9 1.9 0 1-.8 1.9-1.9 1.9-.6 0-1.2-.3-1.5-.8h-1.5v2.5h1.5c.3-.5.9-.9 1.6-.9 1 0 1.9.8 1.9 1.9 0 1-.8 1.9-1.9 1.9-.6 0-1.2-.3-1.5-.8h-1.5v2.5h1.5c.3-.5.9-.8 1.6-.9 1 0 1.9.8 1.9 1.9 0 1-.8 1.9-1.9 1.9-.6 0-1.2-.3-1.5-.8h-1.5v2.5h1.5c.3-.5.9-.9 1.6-.9 1 0 1.9.8 1.9 1.9 0 1-.8 1.9-1.9 1.9-.6 0-1.2-.3-1.5-.8H23v2.5h1.5c.3-.5.9-.9 1.6-.9 1 0 1.9.8 1.9 1.9 0 1-.8 1.9-1.9 1.9-.6 0-1.2-.3-1.5-.8h-1.5v2.5h1.5c.3-.5.9-.9 1.6-.9 1 0 1.9.8 1.9 1.9 0 1-.8 1.9-1.9 1.9-.6 0-1.2-.3-1.5-.8h-1.5v2.5h1.5c.3-.5.9-.9 1.6-.9 1 0 1.9.8 1.9 1.9 0 1-.8 1.9-1.9 1.9-.6 0-1.2-.3-1.5-.8h-1.5v2.5h1.5c.3-.5.9-.8 1.6-.9 1 0 1.9.8 1.9 1.9 0 1-.8 1.9-1.9 1.9-.6 0-1.2-.3-1.5-.8h-1.5v2.5h1.5c.3-.5.9-.8 1.6-.9 1 0 1.9.8 1.9 1.9 0 1-.8 1.9-1.9 1.9-.6 0-1.2-.3-1.5-.8h-1.5v2.5H25c.3-.5.9-.9 1.6-.9 1 0 1.9.8 1.9 1.9 0 1-.8 1.9-1.9 1.9-.6 0-1.2-.3-1.5-.8h-1.5v2.5h1.5c.3-.5.9-.9 1.6-.9 1 0 1.9.8 1.9 1.9 0 1-.8 1.9-1.9 1.9-.6 0-1.2-.3-1.5-.8h-1.5v3.7l65.8-.1.1-100.9-68-.3z" fill="#b7e7ed"/></g><path d="M94.8 33c1.1 0 2-.9 2-2s-.9-2-2-2H31.9c-6 0-10.7 5.3-9.7 11.5.7 4.5 4.6 7.8 9.1 8.1-5.4.3-9.7 5.1-9.2 10.7.5 4.9 4.6 8.6 9.5 8.9-5.6.1-10.1 5-9.5 10.8.5 5.1 5 8.9 10.1 8.9h62.6c1.1 0 2-.9 2-2s-.9-2-2-2h-.7V72.2h.7c1.1 0 2-.9 2-2 0-1-.8-1.9-1.8-2 1-.1 1.8-.9 1.8-2s-.9-2-2-2h-.7V52.6h.7c1.1 0 2-.9 2-2 0-1-.7-1.8-1.6-2 .9-.2 1.6-1 1.6-2 0-1.1-.9-2-2-2h-.7V33h.7zM230.5 103.7v-70c0-3.9-3.2-7.1-7.1-7.1h-106c-3.9 0-7.1 3.2-7.1 7.1v70h-10c0 3.7 3 6.7 6.7 6.7h128.3c3.7 0 6.7-3 6.7-6.7h-11.5z" fill="#dfe2e5" fill-rule="nonzero"/><g fill-rule="nonzero"><path d="M220.3 26.6H114.4c-3.9 0-7.1 3.2-7.1 7.1v70h120.2v-70c-.1-3.9-3.3-7.1-7.2-7.1z" fill="#226c81"/><path d="M220.3 31.4H114.4c-1.2 0-2.2 1-2.2 2.3v65.1h110.4V33.7c-.1-1.2-1.1-2.3-2.3-2.3z" fill="#b7e7ed"/><path d="M97.2 103.7c0 3.7 3 6.7 6.7 6.7h128.3c3.7 0 6.7-3 6.7-6.7H97.2z" fill="#a7a9ac"/><path d="M179.5 105.6h-24.4c-1 0-1.9-.8-1.9-1.9h28.2c0 1-.8 1.9-1.9 1.9z" fill="#dce5e3"/></g><path d="M185.2 56.2c0-9.6-7.8-17.4-17.4-17.4-9.6 0-17.4 7.8-17.4 17.4 0 .6.4 8.6 7 17.1 1.9 2.5 1.6 7.7 1.6 7.7h17.7s-.4-5.1 1.5-7.7c6.6-8.4 7-16.5 7-17.1z" fill="#ffbe5a" fill-rule="nonzero"/><path d="M152.7 60.1c0-10.5 8.5-19 19-19 2.3 0 4.4.4 6.4 1.1-2.9-2.1-6.4-3.4-10.3-3.4-9.6 0-17.4 7.8-17.4 17.4 0 .5.3 6.8 4.8 14-2.3-5.5-2.5-9.7-2.5-10.1z" fill="#fff" fill-opacity=".3" fill-rule="nonzero"/><path d="M159 81v9.1c0 .6.5 1.1 1.1 1.1h15.5c.6 0 1.1-.5 1.1-1.1V81H159z" fill="#226c81" fill-rule="nonzero"/><g fill="#a7a9ac" fill-rule="nonzero"><path d="M158.6 82.8H177c.5 0 .9-.4.9-.9s-.4-.9-.9-.9h-18.4c-.5 0-.9.4-.9.9s.4.9.9.9zM158.6 85.7H177c.5 0 .9-.4.9-.9s-.4-.9-.9-.9h-18.4c-.5 0-.9.4-.9.9s.4.9.9.9zM158.6 88.7H177c.5 0 .9-.4.9-.9s-.4-.9-.9-.9h-18.4c-.5 0-.9.4-.9.9s.4.9.9.9z"/></g><circle cx="167.6" cy="29" r="1.2" fill="#fff"/><g fill="#fff"><path d="M29.8 111.6h54.4v.6H29.8zM29.8 116.7h54.4v.6H29.8zM29.8 121.9h54.4v.6H29.8zM29.8 127h54.4v.6H29.8zM29.8 132.2h54.4v.6H29.8zM29.8 137.3h54.4v.6H29.8zM29.8 142.5h54.4v.6H29.8zM29.8 147.6h54.4v.6H29.8zM29.8 152.8h54.4v.6H29.8zM29.8 157.9h54.4v.6H29.8zM29.8 163h54.4v.6H29.8zM29.8 168.2h54.4v.6H29.8zM29.8 173.3h54.4v.6H29.8zM29.8 178.5h54.4v.6H29.8zM29.8 183.6h54.4v.6H29.8zM29.8 188.8h54.4v.6H29.8zM29.8 193.9h54.4v.6H29.8zM29.8 199.1h54.4v.6H29.8z"/></g><path d="M47.9 132.8h-4.5c-.5 0-.8.4-.8.8l-.1 52.4c0 .5.4.8.8.8h4.5c.5 0 .8-.4.8-.8l.1-52.4c0-.4-.3-.8-.8-.8z" fill="#226c81" fill-rule="nonzero"/><path d="M48.4 107.9H43c-.5 0-1 .4-1 .8v24.1c0 .4.4.8 1 .8h5.4c.5 0 1-.4 1-.8v-24.1c-.1-.4-.5-.8-1-.8zM51.2 108.2c-.3 0-.6.3-.6.7v23.9c0 .4.3.7.6.7s.6-.3.6-.7v-23.9c0-.4-.3-.7-.6-.7z" fill="#a7a9ac" fill-rule="nonzero"/><path d="M49.322 111.634l-.03 8.6 1.3.004.03-8.6-1.3-.004z" fill="#226c81"/><g fill-rule="nonzero"><path d="M91.5 85.9H29.3c-4.3 0-7.8-3.5-7.8-7.8s3.5-7.8 7.8-7.8h62.2v15.6z" fill="#fff"/><path d="M91.5 85.9H29.3c-4.3 0-7.8-3.5-7.8-7.8s3.5-7.8 7.8-7.8h62.2v15.6z" fill="#fff"/><path d="M92.2 87.9H29.6c-5.1 0-9.6-3.8-10.1-8.9-.6-5.8 4.1-10.8 9.8-10.8h62.9c1.1 0 2 .9 2 2s-.9 2-2 2H29.5c-3 0-5.6 2.1-6 5.1-.5 3.6 2.3 6.6 5.8 6.6h62.9c1.1 0 2 .9 2 2s-.9 2-2 2z" fill="#00c591"/><g><path d="M91.5 66.3H29.3c-4.3 0-7.8-3.5-7.8-7.8s3.5-7.8 7.8-7.8h62.2v15.6z" fill="#dce5e3"/><path d="M91.5 66.3H29.3c-4.3 0-7.8-3.5-7.8-7.8s3.5-7.8 7.8-7.8h62.2v15.6z" fill="#fff"/><path d="M92.2 68.3H29.6c-5.1 0-9.6-3.8-10.1-8.9-.5-5.8 4.1-10.8 9.8-10.8h62.9c1.1 0 2 .9 2 2s-.9 2-2 2H29.5c-3 0-5.6 2.1-6 5.1-.5 3.6 2.3 6.6 5.8 6.6h62.9c1.1 0 2 .9 2 2s-.9 2-2 2z" fill="#a7a9ac"/></g><g><path d="M91.5 46.7H29.3c-4.3 0-7.8-3.5-7.8-7.8s3.5-7.8 7.8-7.8h62.2v15.6z" fill="#ffbe5a"/><path d="M92.2 48.7H29.6c-4.8 0-9.2-3.4-10-8.2-1-6.2 3.7-11.5 9.7-11.5h62.9c1.1 0 2 .9 2 2s-.9 2-2 2H29.5c-2.8 0-5.3 1.8-5.9 4.5-.8 3.8 2.1 7.2 5.7 7.2h62.9c1.1 0 2 .9 2 2s-.9 2-2 2z" fill="#226c81"/></g></g><path d="M233.1 127.3v-6.2h-55.7c-3.7 0-6.9 2.7-7.7 6.2h-.4c-.8-3.5-3.9-6.2-7.7-6.2H106v6.2h-3.2v78.8h134v-78.8h-3.7z" fill="#dfe2e5"/><g><path fill="#226c81" d="M100.2 127.3h134v78.8h-134z"/><path d="M167 202.3v-73.4c0-4.3-3.5-7.9-7.9-7.9h-55.7v81.2H167v.1zM167 202.3v-73.4c0-4.3 3.5-7.9 7.9-7.9h55.7v81.2H167v.1z" fill="#dce5e3"/><path d="M174.6 199.4c-3.6 0-6.6 1-7.6 2.4-1-1.4-4-2.4-7.6-2.4h-56v3.2h127.1v-3.2h-55.9z" fill="#a7a9ac"/><path fill="#fff" d="M108.4 127.3h50.7v23.3h-50.7z"/><g fill="#a7a9ac"><path d="M134.8 153.3h23.9v1.2h-23.9zM134.8 156.2h23.9v1.2h-23.9zM134.8 159.2h23.9v1.2h-23.9zM134.8 162.2h23.9v1.2h-23.9zM134.8 165.1h23.9v1.2h-23.9zM134.8 168.1h23.9v1.2h-23.9zM134.8 171h23.9v1.2h-23.9zM134.8 174h23.9v1.2h-23.9zM134.8 176.9h23.9v1.2h-23.9zM134.8 179.9h23.9v1.2h-23.9zM134.8 182.8h23.9v1.2h-23.9zM134.8 185.8h23.9v1.2h-23.9zM134.8 188.8h23.9v1.2h-23.9zM134.8 191.7h23.9v1.2h-23.9z"/></g><g fill="#a7a9ac"><path d="M108.4 153.3h23.9v1.2h-23.9zM108.4 156.2h23.9v1.2h-23.9zM108.4 159.2h23.9v1.2h-23.9zM108.4 162.2h23.9v1.2h-23.9zM108.4 165.1h23.9v1.2h-23.9zM108.4 168.1h23.9v1.2h-23.9zM108.4 171h23.9v1.2h-23.9zM108.4 174h23.9v1.2h-23.9zM108.4 176.9h23.9v1.2h-23.9zM108.4 179.9h23.9v1.2h-23.9zM108.4 182.8h23.9v1.2h-23.9zM108.4 185.8h23.9v1.2h-23.9zM108.4 188.8h23.9v1.2h-23.9zM108.4 191.7h23.9v1.2h-23.9z"/></g><path fill="#a7a9ac" d="M166.7 127.3h.6v74.6h-.6z"/><g fill="#a7a9ac"><path d="M174.8 126.7h49.8v1.2h-49.8zM174.8 129.6h49.8v1.2h-49.8zM174.8 132.6h49.8v1.2h-49.8zM174.8 135.6h49.8v1.2h-49.8zM174.8 138.5h49.8v1.2h-49.8zM174.8 141.5h49.8v1.2h-49.8zM174.8 144.4h49.8v1.2h-49.8zM174.8 147.4h49.8v1.2h-49.8zM174.8 150.3h49.8v1.2h-49.8zM174.8 153.3h49.8v1.2h-49.8zM174.8 156.2h49.8v1.2h-49.8zM174.8 159.2h49.8v1.2h-49.8zM174.8 162.2h49.8v1.2h-49.8zM174.8 165.1h49.8v1.2h-49.8z"/></g><path fill="#b7e7ed" d="M174.8 169.2h23.6v23.6h-23.6z"/><path fill="#ffbe5a" d="M200.9 169.2h23.6v23.6h-23.6z"/></g><g><circle cx="186.3" cy="180.9" r="8.7" fill="#a7a9ac"/><path d="M186.3 187.8c3.8 0 7-3.1 7-7 0-3.8-3.1-7-7-7-3.8 0-7 3.1-7 7s3.2 7 7 7z" fill="#fff"/><path d="M185 180.9l1.3 5 1.3-5H185z" fill="#ffbe5a"/><path d="M187.6 180.9l-1.3-5.1-1.3 5.1h2.6z" fill="#b7e7ed"/></g><path d="M306.4 26.5h-50.5c-.8 0-1.5.3-2.1.9-.6.6-.9 1.3-.9 2.1v78.3c0 .8.3 1.5.9 2.1.6.6 1.3.9 2.1.9h58.5c.8 0 1.5-.3 2.1-.9.6-.6.9-1.3.9-2.1V37.4l-11-10.9z" fill="#dfe2e5" fill-rule="nonzero"/><g><g fill-rule="nonzero"><path d="M314.8 37.4v70.4c0 .8-.3 1.5-.9 2.1-.6.6-1.3.9-2.1.9h-58.5c-.8 0-1.5-.3-2.1-.9-.6-.6-.9-1.3-.9-2.1V29.5c0-.8.3-1.5.9-2.1.6-.6 1.3-.9 2.1-.9h50.5l11 10.9z" fill="#ffbe5a"/><path d="M314.8 37.4h-7.9c-.8 0-1.5-.3-2.1-.9-.6-.6-.9-1.3-.9-2.1v-7.9l10.9 10.9z" fill="#dce5e3"/></g><path fill="#fff" d="M261.3 51.3h42.6v3.3h-42.6zM261.3 65.6h42.6v3.3h-42.6zM261.3 72.8h42.6v3.3h-42.6zM261.3 80h42.6v3.3h-42.6zM261.3 87.2h42.6v3.3h-42.6zM261.3 94.4h42.6v3.3h-42.6zM261.3 58.5h42.6v3.3h-42.6z"/><path fill="#b7e7ed" d="M261.3 37.4h21.3v3.3h-21.3z"/><path fill="#fff" d="M261.3 44.1h42.6v3.3h-42.6z"/></g><g fill-rule="nonzero"><path d="M312.7 104l-3.9-4-4.6 4.6 3.9 4c.3.3 1.7 1 2.7 0l1.8-1.8c1.3-1.3.4-2.6.1-2.8z" fill="#a7a9ac"/><path d="M298.8 97l2.6-2.5 1.1-1.1-37.3-37.6c-.5.6-.5 1.5 0 2.1-.7-.5-1.7-.4-2.3.2-.7.7-.7 1.6-.2 2.3-.6-.5-1.5-.4-2.1 0l37.3 37.7.9-1.1z" fill="#226c81"/><path d="M302.4 93.4l-4.7 4.6 6.5 6.6 4.6-4.6-6.4-6.6z" fill="#dce5e3"/><path d="M255.3 52c.2-.2.5-.4.7-.6.3-.3.5-.5.7-.8l-3.6-2.2 2.2 3.6z" fill="#494942"/><path d="M260.4 60.4c.6-.5 1.5-.5 2.1 0-.5-.7-.4-1.7.2-2.3.7-.6 1.7-.7 2.3-.2-.5-.6-.4-1.5 0-2.1l-8.4-5.1c-.2.3-.4.6-.7.8-.2.2-.5.4-.7.6l5.2 8.3z" fill="#a7a9ac"/></g><path d="M313.4 141.3c-.2-14.9-12.3-27-27.2-27-14.9 0-27.1 12-27.2 27h-5.1v63.9h63.9v-63.9h-4.4z" fill="#dfe2e5" fill-rule="nonzero"/><g><circle cx="283.6" cy="141.6" r="27.2" fill="#a7a9ac"/><circle cx="283.6" cy="141.6" r="25.7" fill="#fff"/><circle cx="283.6" cy="141.6" r="10.4" fill="#dce5e3"/><circle cx="283.6" cy="141.6" r="8" fill="#ffbe5a"/><circle cx="283.6" cy="141.6" r="3.9" fill="#fff"/><path fill="#00c591" d="M251.2 141.3h63.9v63.9h-63.9z"/></g><path d="M283.167 156.925l-16.687 16.687 16.687 16.688 16.688-16.688-16.688-16.687z" fill="#fff"/></svg>